<svg id="Layer_1" enable-background="new 0 0 256 256" height="512" viewBox="0 0 256 256" width="512" xmlns="http://www.w3.org/2000/svg"><g><path d="m76.222 202.104c-.64 0-1.279-.244-1.768-.732l-19.348-19.348c-.977-.977-.977-2.559 0-3.535s2.559-.977 3.535 0l19.348 19.348c.977.977.977 2.559 0 3.535-.488.487-1.128.732-1.767.732z" fill="#ebe7f2"/><path d="m66.456 211.87c-.64 0-1.279-.244-1.768-.732l-19.348-19.348c-.977-.976-.977-2.559 0-3.535s2.559-.977 3.535 0l19.349 19.348c.977.976.977 2.559 0 3.535-.489.488-1.128.732-1.768.732z" fill="#ebe7f2"/><path d="m108.784 177.329c-.64 0-1.279-.244-1.768-.732l-27.135-27.136c-.977-.977-.977-2.559 0-3.535s2.559-.977 3.535 0l27.135 27.136c.977.977.977 2.56 0 3.535-.488.488-1.127.732-1.767.732z" fill="#f9b087"/><path d="m195.116 71.073c-.663 0-1.299-.264-1.768-.732l-7.211-7.212c-.977-.977-.977-2.56 0-3.535l19.769-19.769c.33-.331.747-.563 1.203-.668l9.389-2.178c.833-.193 1.722.057 2.332.668.61.61.862 1.492.668 2.332l-2.178 9.39c-.105.456-.337.873-.668 1.203l-19.769 19.769c-.468.469-1.104.732-1.767.732zm-3.676-9.712 3.676 3.676 17.495-17.494 1.109-4.786-4.785 1.109zm23.445-12.556h.01z" fill="#f9b087"/><path d="m116.517 169.597c-.64 0-1.279-.244-1.768-.732l-27.135-27.136c-.977-.977-.977-2.559 0-3.535s2.559-.977 3.535 0l27.135 27.136c.977.977.977 2.56 0 3.535-.488.488-1.128.732-1.767.732z" fill="#f9b087"/><path d="m208.108 210.332c-.64 0-1.279-.244-1.768-.732l-48.157-48.157c-.977-.977-.977-2.559 0-3.535s2.559-.977 3.535 0l48.157 48.157c.977.977.977 2.559 0 3.535-.487.488-1.127.732-1.767.732z" fill="#ebe7f2"/><g fill="#f9b087"><path d="m150.441 170.193c-.64 0-1.279-.244-1.768-.732l-13.208-13.207c-1.721-1.721-1.721-4.521 0-6.241l14.069-14.068c.833-.834 1.941-1.293 3.12-1.293s2.287.459 3.12 1.293l13.208 13.207c.469.469.732 1.104.732 1.768s-.264 1.299-.732 1.768l-16.774 16.774c-.487.487-1.127.731-1.767.731zm-11.025-17.06 11.025 11.025 13.239-13.239-11.025-11.024z"/><path d="m63.613 143.325h-12.347c-1.381 0-2.5-1.119-2.5-2.5v-33.399c0-1.381 1.119-2.5 2.5-2.5h12.348c3.778 0 6.852 3.074 6.852 6.853v24.694c-.001 3.778-3.074 6.852-6.853 6.852zm-9.847-5h9.848c1.021 0 1.852-.831 1.852-1.853v-24.694c0-1.021-.831-1.853-1.852-1.853h-9.848z"/><path d="m134.349 79.456h-5.85v-28.399h5.85c1.381 0 2.5-1.119 2.5-2.5s-1.119-2.5-2.5-2.5h-16.699c-1.381 0-2.5 1.119-2.5 2.5s1.119 2.5 2.5 2.5h5.85v28.399h-5.85c-1.381 0-2.5 1.119-2.5 2.5s1.119 2.5 2.5 2.5h16.699c1.381 0 2.5-1.119 2.5-2.5s-1.12-2.5-2.5-2.5z"/><path d="m126.336 223.759c-.452 0-.91-.122-1.321-.379-1.172-.731-1.528-2.273-.798-3.444l5.121-8.205h-7.183c-.905 0-1.739-.489-2.182-1.278-.441-.79-.423-1.757.051-2.528l7.167-11.689c.723-1.178 2.265-1.545 3.438-.824 1.177.722 1.546 2.261.824 3.438l-4.833 7.883h7.225c.908 0 1.745.493 2.187 1.287.44.795.415 1.766-.065 2.536l-7.507 12.028c-.476.758-1.29 1.175-2.124 1.175z"/><path d="m204.734 104.926c-1.381 0-2.5 1.119-2.5 2.5v14.2h-11.699v-14.2c0-1.381-1.119-2.5-2.5-2.5s-2.5 1.119-2.5 2.5v16.7c0 1.381 1.119 2.5 2.5 2.5h5.85v14.199c0 1.381 1.119 2.5 2.5 2.5s2.5-1.119 2.5-2.5v-14.199h5.85c1.381 0 2.5-1.119 2.5-2.5v-16.7c-.001-1.381-1.12-2.5-2.501-2.5z"/></g><g fill="#846f75"><path d="m135.162 109.148 48.497-48.497 12.168 12.167-49.079 49.079c-.977.977-.977 2.559 0 3.535.488.488 1.128.732 1.768.732s1.279-.244 1.768-.732l50.847-50.847c.469-.469.732-1.104.732-1.768s-.264-1.299-.732-1.768l-15.703-15.702c-.977-.977-2.559-.977-3.535 0l-5.593 5.593-3.548-3.548 1.597-1.597c.977-.977.977-2.559 0-3.535s-2.559-.977-3.535 0l-3.36 3.36c-.002.001-.004.003-.005.004s-.003.004-.004.005l-3.36 3.36c-.977.977-.977 2.559 0 3.535.488.488 1.128.732 1.768.732s1.279-.244 1.768-.732l1.597-1.597 3.548 3.548-41.137 41.137c-.977.977-.977 2.559 0 3.535s2.557.978 3.533.001z"/><path d="m125.877 161.896c.469-.469.732-1.104.732-1.768s-.264-1.299-.732-1.768l-4.261-4.261 4.639-4.639c.977-.977.977-2.559 0-3.535s-2.559-.977-3.535 0l-4.639 4.639-6.084-6.083-6.083-6.084 5.165-5.165c.977-.977.977-2.559 0-3.535s-2.559-.977-3.535 0l-5.165 5.166-4.261-4.261c-.977-.977-2.559-.977-3.535 0l-22.292 22.292c-.977.977-.977 2.559 0 3.535l2.438 2.438-35.815 35.815c-1.596 1.596-2.475 3.718-2.475 5.974 0 2.257.879 4.379 2.475 5.974l10.936 10.938c1.647 1.646 3.811 2.469 5.974 2.469s4.326-.823 5.974-2.469c0-.001 0-.001 0-.001l35.812-35.817 2.438 2.438c.488.488 1.128.732 1.768.732s1.279-.244 1.768-.732zm-67.617 52.134c-1.344 1.346-3.533 1.345-4.877.001l-10.936-10.938c-.651-.65-1.01-1.517-1.01-2.438s.358-1.787 1.01-2.438l35.815-35.815 15.813 15.813zm19.332-59.369 18.757-18.757 24.226 24.225-18.758 18.757z"/><path d="m217.118 190.554-40.635-40.634c-1.576-1.576-3.672-2.444-5.901-2.444-2.23 0-4.326.868-5.902 2.444l-15.239 15.237c-3.253 3.255-3.253 8.551.001 11.805l40.634 40.635c1.628 1.627 3.766 2.439 5.902 2.439 2.138 0 4.275-.813 5.902-2.44l15.238-15.238c3.255-3.254 3.255-8.55 0-11.804zm-3.535 8.268-15.238 15.238c-1.305 1.305-3.43 1.305-4.734 0l-40.634-40.634c-1.305-1.305-1.305-3.429 0-4.734l15.238-15.237c.632-.632 1.473-.979 2.367-.979s1.734.348 2.366.979l40.635 40.634c1.305 1.305 1.305 3.429 0 4.733z"/><path d="m128 183.57c-14.094 0-25.561 11.467-25.561 25.561s11.467 25.561 25.561 25.561 25.561-11.467 25.561-25.561-11.467-25.561-25.561-25.561zm0 46.121c-11.337 0-20.561-9.224-20.561-20.561s9.224-20.56 20.561-20.56 20.561 9.224 20.561 20.561-9.224 20.56-20.561 20.56z"/><path d="m52.048 72.17c1.429 2.052 3.559 3.491 5.996 4.054l5.738 1.324 72.074 72.075 3.535-3.535-70.813-70.815 6.218-6.218 70.814 70.814 3.535-3.535-72.075-72.074-1.324-5.738c-.562-2.437-2.002-4.566-4.054-5.996l-19.424-13.539c-2.001-1.396-4.703-1.155-6.424.569l-6.767 6.766c-1.722 1.723-1.961 4.424-.568 6.424zm-2.64-29.081 19.425 13.538c1.033.721 1.759 1.792 2.042 3.02l1.174 5.086-7.794 7.794-5.086-1.174c-1.228-.284-2.3-1.008-3.02-2.041l-13.536-19.456z"/></g></g></svg>